# xmcd CD database file
#
# Track frame offsets:
#	150
#	18117
#	43999
#	63208
#	77791
#	96766
#	114237
#	134487
#	161849
#	178847
#
# Disc length: 2670 seconds
#
# Revision: 1
# Processed by: cddbd v1.5.1PL2 Copyright (c) Steve Scherf et al.
# Submitted via: CDex 1.70beta2
#
DISCID=800a6c0a
DTITLE=Skeptical Minds - Rent To Kill
DYEAR=2005
DGENRE=Gothic Metal
TTITLE0=Eat And Hate
TTITLE1=I Love You ('coz You're Dead)
TTITLE2=Rent To Kill
TTITLE3=Rotten Fruit
TTITLE4=Madness
TTITLE5=Kissing the White Goddess
TTITLE6=Watch Your Back
TTITLE7=Treasured Felony
TTITLE8=Black Porcelain
TTITLE9=Kissing War
EXTD=YEAR: 2005
EXTT0=
EXTT1=
EXTT2=
EXTT3=
EXTT4=
EXTT5=
EXTT6=
EXTT7=
EXTT8=
EXTT9=
PLAYORDER=
